<?xml version="1.0" encoding="UTF-8"?>
<svg xmlns="http://www.w3.org/2000/svg" xmlns:xlink="http://www.w3.org/1999/xlink"
     width="1980" height="1080" viewBox="0 0 1980 1080">
<defs>
</defs>
<rect x="1" y="1" width="1979" height="1079" fill="#eeeeee" stroke="black" />
<g id="title">
<path d="M1,50 L1980,50" stroke="black" />
<text x="990.0" y="25" font-size="30" text-anchor="middle" dominant-baseline="central">Gantt Test</text>
</g>
<g id="background">
<path d="M1,80 L1980,80" stroke="black" />
<text x="5" y="100" font-size="20" fill="#555555">任务</text>
<path d="M221,50 L221,1080" stroke="grey" />
<text x="221" y="100" font-size="20" fill="#555555">开始日期</text>
<path d="M321,50 L321,1080" stroke="grey" />
<text x="321" y="100" font-size="20" fill="#555555">截止日期</text>
<path d="M421,50 L421,1080" stroke="grey" />
<text x="421" y="100" font-size="20" fill="#555555">工时</text>
<path d="M471,50 L471,1080" stroke="grey" />
<text x="471" y="100" font-size="20" fill="#555555">资源</text>
<rect x="541" y="80" width="30" height="1080" fill="#cccccc">
<title>1</title>
</rect>
<text x="541" y="104" font-size="24" fill="#555555">1</text>
<rect x="572" y="80" width="30" height="1080" fill="#cccccc">
<title>2</title>
</rect>
<text x="572" y="104" font-size="24" fill="#555555">2</text>
<rect x="603" y="80" width="30" height="1080" fill="#cccccc">
<title>3</title>
</rect>
<text x="603" y="104" font-size="24" fill="#555555">3</text>
<rect x="634" y="80" width="30" height="1080" fill="#dddddd">
<title>4</title>
</rect>
<text x="634" y="104" font-size="24" fill="#555555">4</text>
<path d="M695,50 L695,1080" stroke="black" />
<rect x="665" y="80" width="30" height="1080" fill="#dddddd">
<title>5</title>
</rect>
<text x="665" y="104" font-size="24" fill="#555555">5</text>
<rect x="696" y="80" width="30" height="1080" fill="#cccccc">
<title>6</title>
</rect>
<text x="696" y="104" font-size="24" fill="#555555">6</text>
<rect x="727" y="80" width="30" height="1080" fill="#cccccc">
<title>7</title>
</rect>
<text x="727" y="104" font-size="24" fill="#555555">7</text>
<rect x="758" y="80" width="30" height="1080" fill="#cccccc">
<title>8</title>
</rect>
<text x="758" y="104" font-size="24" fill="#555555">8</text>
<rect x="789" y="80" width="30" height="1080" fill="#cccccc">
<title>9</title>
</rect>
<text x="789" y="104" font-size="24" fill="#555555">9</text>
<rect x="820" y="80" width="30" height="1080" fill="#cccccc">
<title>10</title>
</rect>
<text x="820" y="104" font-size="24" fill="#555555">10</text>
<rect x="851" y="80" width="30" height="1080" fill="#dddddd">
<title>11</title>
</rect>
<text x="851" y="104" font-size="24" fill="#555555">11</text>
<path d="M912,50 L912,1080" stroke="black" />
<rect x="882" y="80" width="30" height="1080" fill="#dddddd">
<title>12</title>
</rect>
<text x="882" y="104" font-size="24" fill="#555555">12</text>
<rect x="913" y="80" width="30" height="1080" fill="#cccccc">
<title>13</title>
</rect>
<text x="913" y="104" font-size="24" fill="#555555">13</text>
<rect x="944" y="80" width="30" height="1080" fill="#cccccc">
<title>14</title>
</rect>
<text x="944" y="104" font-size="24" fill="#555555">14</text>
<rect x="975" y="80" width="30" height="1080" fill="#cccccc">
<title>15</title>
</rect>
<text x="975" y="104" font-size="24" fill="#555555">15</text>
<rect x="1006" y="80" width="30" height="1080" fill="#cccccc">
<title>16</title>
</rect>
<text x="1006" y="104" font-size="24" fill="#555555">16</text>
<rect x="1037" y="80" width="30" height="1080" fill="#cccccc">
<title>17</title>
</rect>
<text x="1037" y="104" font-size="24" fill="#555555">17</text>
<rect x="1068" y="80" width="30" height="1080" fill="#dddddd">
<title>18</title>
</rect>
<text x="1068" y="104" font-size="24" fill="#555555">18</text>
<path d="M1129,50 L1129,1080" stroke="black" />
<rect x="1099" y="80" width="30" height="1080" fill="#dddddd">
<title>19</title>
</rect>
<text x="1099" y="104" font-size="24" fill="#555555">19</text>
<rect x="1130" y="80" width="30" height="1080" fill="#cccccc">
<title>20</title>
</rect>
<text x="1130" y="104" font-size="24" fill="#555555">20</text>
<rect x="1161" y="80" width="30" height="1080" fill="#cccccc">
<title>21</title>
</rect>
<text x="1161" y="104" font-size="24" fill="#555555">21</text>
<rect x="1192" y="80" width="30" height="1080" fill="#cccccc">
<title>22</title>
</rect>
<text x="1192" y="104" font-size="24" fill="#555555">22</text>
<rect x="1223" y="80" width="30" height="1080" fill="#cccccc">
<title>23</title>
</rect>
<text x="1223" y="104" font-size="24" fill="#555555">23</text>
<rect x="1254" y="80" width="30" height="1080" fill="#cccccc">
<title>24</title>
</rect>
<text x="1254" y="104" font-size="24" fill="#555555">24</text>
<rect x="1285" y="80" width="30" height="1080" fill="#dddddd">
<title>25</title>
</rect>
<text x="1285" y="104" font-size="24" fill="#555555">25</text>
<path d="M1346,50 L1346,1080" stroke="black" />
<rect x="1316" y="80" width="30" height="1080" fill="#dddddd">
<title>26</title>
</rect>
<text x="1316" y="104" font-size="24" fill="#555555">26</text>
<rect x="1347" y="80" width="30" height="1080" fill="#cccccc">
<title>27</title>
</rect>
<text x="1347" y="104" font-size="24" fill="#555555">27</text>
<rect x="1378" y="80" width="30" height="1080" fill="#cccccc">
<title>28</title>
</rect>
<text x="1378" y="104" font-size="24" fill="#555555">28</text>
<rect x="1409" y="80" width="30" height="1080" fill="#cccccc">
<title>29</title>
</rect>
<text x="1409" y="104" font-size="24" fill="#555555">29</text>
<rect x="1440" y="80" width="30" height="1080" fill="#cccccc">
<title>30</title>
</rect>
<text x="1440" y="104" font-size="24" fill="#555555">30</text>
<path d="M1,106 L1980,106" stroke="grey" />
</g>
<path d="M541,50 L541,1080" stroke="grey" />
<g id="text">
<text x="5" y="130" font-size="20" text-anchor="start">S级需求开发排期</text>
<text x="221" y="130" font-size="20" text-anchor="start">2023-03-06</text>
<text x="321" y="130" font-size="20" text-anchor="start">2023-03-22</text>
</g>
<g id="item" fill="none" stroke="black">
<path d="M697,116 L1223,116 L1223,134 L1213,125 L707,125 L697,134 L697,116" fill="black" stroke="black" />
<path d="M1,140 L1980,140" stroke="grey" />
</g>
<g id="text">
<text x="35" y="161" font-size="20" text-anchor="start">P1.5.1 开发</text>
<text x="221" y="161" font-size="20" text-anchor="start">2023-03-06</text>
<text x="321" y="161" font-size="20" text-anchor="start">2023-03-15</text>
<text x="421" y="161" font-size="20" text-anchor="start">4</text>
<text x="471" y="161" font-size="20" text-anchor="start">陈景峰</text>
</g>
<g id="item" fill="none" stroke="black">
<rect x="697" y="145" width="309" height="20" fill="#ccccff">
<title>P1.5.1 开发</title>
</rect>
<rect x="697" y="148" width="120" height="14" fill="#ccffff">
<title>4</title>
</rect>
<path d="M1,171 L1980,171" stroke="grey" />
</g>
<g id="text">
<text x="35" y="192" font-size="20" text-anchor="start">P1.5.1 开发</text>
<text x="221" y="192" font-size="20" text-anchor="start">2023-03-15</text>
<text x="321" y="192" font-size="20" text-anchor="start">2023-03-22</text>
<text x="421" y="192" font-size="20" text-anchor="start">0</text>
</g>
<g id="item" fill="none" stroke="black">
<rect x="976" y="176" width="247" height="20" fill="#ccccff">
<title>P1.5.1 开发</title>
</rect>
<rect x="976" y="179" width="0" height="14" fill="#ccffff">
<title>0</title>
</rect>
<path d="M1,202 L1980,202" stroke="grey" />
</g>
<g id="text">
<text x="5" y="223" font-size="20" text-anchor="start">S级需求测试排期</text>
<text x="221" y="223" font-size="20" text-anchor="start">2023-03-06</text>
<text x="321" y="223" font-size="20" text-anchor="start">2023-03-22</text>
</g>
<g id="item" fill="none" stroke="black">
<path d="M697,209 L1223,209 L1223,227 L1213,218 L707,218 L697,227 L697,209" fill="black" stroke="black" />
<path d="M1,233 L1980,233" stroke="grey" />
</g>
<g id="text">
<text x="35" y="254" font-size="20" text-anchor="start">P1.5.1 开发</text>
<text x="221" y="254" font-size="20" text-anchor="start">2023-03-06</text>
<text x="321" y="254" font-size="20" text-anchor="start">2023-03-15</text>
<text x="421" y="254" font-size="20" text-anchor="start">4</text>
</g>
<g id="item" fill="none" stroke="black">
<rect x="697" y="238" width="309" height="20" fill="#ccccff">
<title>P1.5.1 开发</title>
</rect>
<rect x="697" y="241" width="120" height="14" fill="#ccffff">
<title>4</title>
</rect>
<path d="M1,264 L1980,264" stroke="grey" />
</g>
<g id="text">
<text x="35" y="285" font-size="20" text-anchor="start">P1.5.1 开发</text>
<text x="221" y="285" font-size="20" text-anchor="start">2023-03-15</text>
<text x="321" y="285" font-size="20" text-anchor="start">2023-03-22</text>
<text x="421" y="285" font-size="20" text-anchor="start">0</text>
</g>
<g id="item" fill="none" stroke="black">
<rect x="976" y="269" width="247" height="20" fill="#ccccff">
<title>P1.5.1 开发</title>
</rect>
<rect x="976" y="272" width="0" height="14" fill="#ccffff">
<title>0</title>
</rect>
<path d="M1,295 L1980,295" stroke="grey" />
</g>
<g id="text">
<text x="5" y="316" font-size="20" text-anchor="start">汉字</text>
<text x="221" y="316" font-size="20" text-anchor="start">2023-03-01</text>
<text x="321" y="316" font-size="20" text-anchor="start">2023-03-05</text>
<text x="421" y="316" font-size="20" text-anchor="start">3</text>
</g>
<g id="item" fill="none" stroke="black">
<rect x="542" y="300" width="154" height="20" fill="#ccccff">
<title>汉字</title>
</rect>
<rect x="542" y="303" width="90" height="14" fill="#ccffff">
<title>3</title>
</rect>
<path d="M1,326 L1980,326" stroke="grey" />
</g>
<g id="text">
<text x="5" y="347" font-size="20" text-anchor="start">Java</text>
<text x="221" y="347" font-size="20" text-anchor="start">2023-03-01</text>
<text x="321" y="347" font-size="20" text-anchor="start">2023-03-05</text>
<text x="421" y="347" font-size="20" text-anchor="start">2</text>
</g>
<g id="item" fill="none" stroke="black">
<rect x="542" y="331" width="154" height="20" fill="#ccccff">
<title>Java</title>
</rect>
<rect x="542" y="334" width="60" height="14" fill="#ccffff">
<title>2</title>
</rect>
<path d="M1,357 L1980,357" stroke="grey" />
</g>
<g id="text">
<text x="5" y="378" font-size="20" text-anchor="start">PHP</text>
<text x="221" y="378" font-size="20" text-anchor="start">2023-03-03</text>
<text x="321" y="378" font-size="20" text-anchor="start">2023-03-10</text>
<text x="421" y="378" font-size="20" text-anchor="start">5</text>
</g>
<g id="item" fill="none" stroke="black">
<rect x="604" y="362" width="247" height="20" fill="#ccccff">
<title>PHP</title>
</rect>
<rect x="604" y="365" width="150" height="14" fill="#ccffff">
<title>5</title>
</rect>
<path d="M1,388 L1980,388" stroke="grey" />
</g>
<g id="text">
<text x="5" y="409" font-size="20" text-anchor="start">Go</text>
<text x="221" y="409" font-size="20" text-anchor="start">2023-03-10</text>
<text x="321" y="409" font-size="20" text-anchor="start">2023-03-20</text>
</g>
<g id="item" fill="none" stroke="black">
<rect x="821" y="393" width="340" height="20" fill="#ccccff">
<title>Go</title>
</rect>
<path d="M1,419 L1980,419" stroke="grey" />
</g>
<g id="text">
<text x="5" y="440" font-size="20" text-anchor="start">Python</text>
<text x="221" y="440" font-size="20" text-anchor="start">2023-03-06</text>
<text x="321" y="440" font-size="20" text-anchor="start">2023-03-08</text>
</g>
<g id="item" fill="none" stroke="black">
<rect x="697" y="424" width="92" height="20" fill="#ccccff">
<title>Python</title>
</rect>
<path d="M1,450 L1980,450" stroke="grey" />
</g>
<g id="text">
<text x="5" y="471" font-size="20" text-anchor="start">Swift</text>
<text x="221" y="471" font-size="20" text-anchor="start">2023-03-06</text>
<text x="321" y="471" font-size="20" text-anchor="start">2023-03-20</text>
</g>
<g id="item" fill="none" stroke="black">
<path d="M697,457 L1161,457 L1161,475 L1151,466 L707,466 L697,475 L697,457" fill="black" stroke="black" />
<path d="M1,481 L1980,481" stroke="grey" />
</g>
<g id="text">
<text x="35" y="502" font-size="20" text-anchor="start">LLVM</text>
<text x="221" y="502" font-size="20" text-anchor="start">2023-03-01</text>
<text x="321" y="502" font-size="20" text-anchor="start">2023-03-05</text>
</g>
<g id="item" fill="none" stroke="black">
<rect x="542" y="486" width="154" height="20" fill="#ccccff">
<title>LLVM</title>
</rect>
<path d="M1,512 L1980,512" stroke="grey" />
</g>
<g id="text">
<text x="35" y="533" font-size="20" text-anchor="start">Clang</text>
<text x="221" y="533" font-size="20" text-anchor="start">2023-03-03</text>
<text x="321" y="533" font-size="20" text-anchor="start">2023-03-10</text>
</g>
<g id="item" fill="none" stroke="black">
<rect x="604" y="517" width="247" height="20" fill="#ccccff">
<title>Clang</title>
</rect>
<path d="M1,543 L1980,543" stroke="grey" />
</g>
</svg>