<?xml version="1.0" encoding="UTF-8"?>
<svg xmlns="http://www.w3.org/2000/svg" xmlns:xlink="http://www.w3.org/1999/xlink"
     width="1151" height="573" viewBox="0 0 1151 573">
<defs>
<marker markerWidth="4.0" markerHeight="4.04" viewBox="-0.1 -0.51 1.0 1.01" orient="auto" id="d0">
<path d="M-0.1,0.5 L-0.1,-0.5 L0.9,0 Z" fill="red" />
</marker>
<marker markerWidth="4.0" markerHeight="4.04" viewBox="-0.1 -0.51 1.0 1.01" orient="auto" id="d1">
<path d="M-0.1,0.5 L-0.1,-0.5 L0.9,0 Z" fill="red" />
</marker>
<marker markerWidth="4.0" markerHeight="4.04" viewBox="-0.1 -0.51 1.0 1.01" orient="auto" id="d2">
<path d="M-0.1,0.5 L-0.1,-0.5 L0.9,0 Z" fill="red" />
</marker>
<marker markerWidth="4.0" markerHeight="4.04" viewBox="-0.1 -0.51 1.0 1.01" orient="auto" id="d3">
<path d="M-0.1,0.5 L-0.1,-0.5 L0.9,0 Z" fill="red" />
</marker>
<marker markerWidth="4.0" markerHeight="4.04" viewBox="-0.1 -0.51 1.0 1.01" orient="auto" id="d4">
<path d="M-0.1,0.5 L-0.1,-0.5 L0.9,0 Z" fill="red" />
</marker>
<marker markerWidth="4.0" markerHeight="4.04" viewBox="-0.1 -0.51 1.0 1.01" orient="auto" id="d5">
<path d="M-0.1,0.5 L-0.1,-0.5 L0.9,0 Z" fill="red" />
</marker>
</defs>
<g id="title" onclick="this.style.stroke = 'green'; ">
<text x="575.5" y="25" font-size="30" text-anchor="middle" dominant-baseline="central">甘特图标题</text>
</g>
<g id="calendar">
<g id="table">
<title>表格</title>
<text x="5" y="130" font-size="20" fill="#555555">任务</text>
<path d="M190,110 L190,573" stroke="grey" />
<text x="190" y="130" font-size="20" fill="#555555">开始日期</text>
<path d="M290,110 L290,573" stroke="grey" />
<text x="290" y="130" font-size="20" fill="#555555">截止日期</text>
<path d="M390,110 L390,573" stroke="grey" />
<text x="390" y="130" font-size="20" fill="#555555">工时</text>
<path d="M440,110 L440,573" stroke="grey" />
<text x="440" y="130" font-size="20" fill="#555555">资源</text>
</g>
<g id="year2023">
<g id="month3">
<g id="week09">
<text x="535" y="70" font-size="20" fill="#555555">2023年03月</text>
<text x="535" y="100" font-size="20" fill="#555555">三</text>
<rect x="531" y="110" width="30" height="463" fill="#cccccc">
<title>1</title>
</rect>
<text x="541" y="130" font-size="20" fill="#555555">1</text>
<text x="566" y="100" font-size="20" fill="#555555">四</text>
<rect x="562" y="110" width="30" height="463" fill="#cccccc">
<title>2</title>
</rect>
<text x="572" y="130" font-size="20" fill="#555555">2</text>
<text x="597" y="100" font-size="20" fill="#555555">五</text>
<rect x="593" y="110" width="30" height="463" fill="#cccccc">
<title>3</title>
</rect>
<text x="603" y="130" font-size="20" fill="#555555">3</text>
<text x="628" y="100" font-size="20" fill="#555555">六</text>
<rect x="624" y="110" width="30" height="463" fill="#dddddd">
<title>4</title>
</rect>
<text x="634" y="130" font-size="20" fill="#555555">4</text>
<text x="659" y="100" font-size="20" fill="#555555">日</text>
<rect x="655" y="110" width="30" height="463" fill="#dddddd">
<title>5</title>
</rect>
<path d="M685,80 L685,573" stroke="black" />
<text x="665" y="130" font-size="20" fill="#555555">5</text>
</g>
<g id="week10">
<text x="690" y="100" font-size="20" fill="#555555">一</text>
<rect x="686" y="110" width="30" height="463" fill="#cccccc">
<title>6</title>
</rect>
<text x="696" y="130" font-size="20" fill="#555555">6</text>
<text x="721" y="100" font-size="20" fill="#555555">二</text>
<rect x="717" y="110" width="30" height="463" fill="#cccccc">
<title>7</title>
</rect>
<text x="727" y="130" font-size="20" fill="#555555">7</text>
<text x="752" y="100" font-size="20" fill="#555555">三</text>
<rect x="748" y="110" width="30" height="463" fill="#cccccc">
<title>8</title>
</rect>
<text x="758" y="130" font-size="20" fill="#555555">8</text>
<text x="783" y="100" font-size="20" fill="#555555">四</text>
<rect x="779" y="110" width="30" height="463" fill="#cccccc">
<title>9</title>
</rect>
<text x="789" y="130" font-size="20" fill="#555555">9</text>
<text x="814" y="100" font-size="20" fill="#555555">五</text>
<rect x="810" y="110" width="30" height="463" fill="#cccccc">
<title>10</title>
</rect>
<text x="810" y="130" font-size="20" fill="#555555">10</text>
<text x="845" y="100" font-size="20" fill="#555555">六</text>
<rect x="841" y="110" width="30" height="463" fill="#dddddd">
<title>11</title>
</rect>
<text x="841" y="130" font-size="20" fill="#555555">11</text>
<text x="876" y="100" font-size="20" fill="#555555">日</text>
<rect x="872" y="110" width="30" height="463" fill="#dddddd">
<title>12</title>
</rect>
<path d="M902,80 L902,573" stroke="black" />
<text x="872" y="130" font-size="20" fill="#555555">12</text>
</g>
<g id="week11">
<text x="907" y="100" font-size="20" fill="#555555">一</text>
<rect x="903" y="110" width="30" height="463" fill="#cccccc">
<title>13</title>
</rect>
<text x="903" y="130" font-size="20" fill="#555555">13</text>
<text x="938" y="100" font-size="20" fill="#555555">二</text>
<rect x="934" y="110" width="30" height="463" fill="#cccccc">
<title>14</title>
</rect>
<text x="934" y="130" font-size="20" fill="#555555">14</text>
<text x="969" y="100" font-size="20" fill="#555555">三</text>
<rect x="965" y="110" width="30" height="463" fill="#cccccc">
<title>15</title>
</rect>
<text x="965" y="130" font-size="20" fill="#555555">15</text>
<text x="1000" y="100" font-size="20" fill="#555555">四</text>
<rect x="996" y="110" width="30" height="463" fill="#cccccc">
<title>16</title>
</rect>
<text x="996" y="130" font-size="20" fill="#555555">16</text>
<text x="1031" y="100" font-size="20" fill="#555555">五</text>
<rect x="1027" y="110" width="30" height="463" fill="#cccccc">
<title>17</title>
</rect>
<text x="1027" y="130" font-size="20" fill="#555555">17</text>
<text x="1062" y="100" font-size="20" fill="#555555">六</text>
<rect x="1058" y="110" width="30" height="463" fill="#dddddd">
<title>18</title>
</rect>
<text x="1058" y="130" font-size="20" fill="#555555">18</text>
<text x="1093" y="100" font-size="20" fill="#555555">日</text>
<rect x="1089" y="110" width="30" height="463" fill="#dddddd">
<title>19</title>
</rect>
<path d="M1119,80 L1119,573" stroke="black" />
<text x="1089" y="130" font-size="20" fill="#555555">19</text>
</g>
<g id="week12">
<path d="M1150,50 L1150,573" stroke="black" />
<text x="1124" y="100" font-size="20" fill="#555555">一</text>
<rect x="1120" y="110" width="30" height="463" fill="#cccccc">
<title>20</title>
</rect>
<text x="1120" y="130" font-size="20" fill="#555555">20</text>
</g>
</g>
</g>
<path d="M1,80 L1151,80" stroke="grey" />
<path d="M1,110 L1151,110" stroke="grey" />
<path d="M1,140 L1151,140" stroke="grey" />
<path d="M1,50 L1151,50" stroke="grey" />
<path d="M530,80 L530,573" stroke="grey" />
</g>
<g id="tasks">
<g id="task">
<g id="text">
<text x="5" y="160" font-size="20" text-anchor="start">任务组</text>
<text x="190" y="160" font-size="20" text-anchor="start">2023-03-01</text>
<text x="290" y="160" font-size="20" text-anchor="start">2023-03-10</text>
<text x="400" y="160" font-size="20" text-anchor="start">10</text>
<text x="440" y="160" font-size="20" text-anchor="start">admin</text>
</g>
<g id="item">
<path d="M531,147 L840,147 L840,164 L830,155 L541,155 L531,164 L531,147" fill="black" stroke="black" />
<path d="M1,170 L1151,170" stroke="grey" />
</g>
</g>
<g id="task">
<g id="text">
<text x="35" y="191" font-size="20" text-anchor="start">aaa</text>
<text x="190" y="191" font-size="20" text-anchor="start">2023-03-03</text>
<text x="290" y="191" font-size="20" text-anchor="start">2023-03-04</text>
<text x="400" y="191" font-size="20" text-anchor="start">2</text>
<text x="440" y="191" font-size="20" text-anchor="start">test</text>
</g>
<g id="item">
<rect x="593" y="175" width="61" height="20" fill="#67AAFF" stroke="black">
<title>aaa</title>
</rect>
<path d="M1,201 L1151,201" stroke="grey" />
</g>
</g>
<g id="task">
<g id="text">
<text x="35" y="222" font-size="20" text-anchor="start">bbb</text>
<text x="190" y="222" font-size="20" text-anchor="start">2023-03-05</text>
<text x="290" y="222" font-size="20" text-anchor="start">2023-03-07</text>
<text x="400" y="222" font-size="20" text-anchor="start">3</text>
<text x="440" y="222" font-size="20" text-anchor="start"></text>
</g>
<g id="item">
<rect x="655" y="206" width="92" height="20" fill="#67AAFF" stroke="black">
<title>bbb</title>
</rect>
<path d="M1,232 L1151,232" stroke="grey" />
</g>
</g>
<g id="task">
<g id="text">
<text x="35" y="253" font-size="20" text-anchor="start">ccc</text>
<text x="190" y="253" font-size="20" text-anchor="start">2023-03-08</text>
<text x="290" y="253" font-size="20" text-anchor="start">2023-03-10</text>
<text x="400" y="253" font-size="20" text-anchor="start">3</text>
<text x="440" y="253" font-size="20" text-anchor="start">test</text>
</g>
<g id="item">
<rect x="748" y="237" width="92" height="20" fill="#67AAFF" stroke="black">
<title>ccc</title>
</rect>
<path d="M1,263 L1151,263" stroke="grey" />
</g>
</g>
<g id="task">
<g id="text">
<text x="35" y="284" font-size="20" text-anchor="start">ddd</text>
<text x="190" y="284" font-size="20" text-anchor="start">2023-03-08</text>
<text x="290" y="284" font-size="20" text-anchor="start">2023-03-10</text>
<text x="400" y="284" font-size="20" text-anchor="start">3</text>
<text x="440" y="284" font-size="20" text-anchor="start"></text>
</g>
<g id="item">
<rect x="748" y="268" width="92" height="20" fill="#67AAFF" stroke="black">
<title>ddd</title>
</rect>
<path d="M1,294 L1151,294" stroke="grey" />
</g>
</g>
<g id="task">
<g id="text">
<text x="35" y="315" font-size="20" text-anchor="start">aaabbb</text>
<text x="190" y="315" font-size="20" text-anchor="start">2023-03-02</text>
<text x="290" y="315" font-size="20" text-anchor="start">2023-03-03</text>
<text x="400" y="315" font-size="20" text-anchor="start">2</text>
<text x="440" y="315" font-size="20" text-anchor="start">closed</text>
</g>
<g id="item">
<path d="M577,299 L588,310 L577,321 L566,310 L577,299 Z" fill="black" />
<text x="592" y="315" font-size="18" text-anchor="start" fill="black">2023年03月02日</text>
<path d="M1,325 L1151,325" stroke="grey" />
</g>
</g>
<g id="task">
<g id="text">
<text x="5" y="346" font-size="20" text-anchor="start">aaa</text>
<text x="190" y="346" font-size="20" text-anchor="start">2023-03-11</text>
<text x="290" y="346" font-size="20" text-anchor="start">2023-03-20</text>
<text x="400" y="346" font-size="20" text-anchor="start">10</text>
<text x="440" y="346" font-size="20" text-anchor="start">test</text>
</g>
<g id="item">
<rect x="841" y="330" width="309" height="20" fill="#67AAFF" stroke="black">
<title>aaa</title>
</rect>
<path d="M1,356 L1151,356" stroke="grey" />
</g>
</g>
<g id="task">
<g id="text">
<text x="5" y="377" font-size="20" text-anchor="start">eeeee</text>
<text x="190" y="377" font-size="20" text-anchor="start">2023-03-10</text>
<text x="290" y="377" font-size="20" text-anchor="start">2023-03-13</text>
<text x="400" y="377" font-size="20" text-anchor="start">4</text>
<text x="440" y="377" font-size="20" text-anchor="start"></text>
</g>
<g id="item">
<path d="M825,361 L836,372 L825,383 L814,372 L825,361 Z" fill="black" />
<text x="840" y="377" font-size="18" text-anchor="start" fill="black">2023年03月10日</text>
<path d="M1,387 L1151,387" stroke="grey" />
</g>
</g>
<g id="task">
<g id="text">
<text x="5" y="408" font-size="20" text-anchor="start">主任务主任务主任务</text>
<text x="190" y="408" font-size="20" text-anchor="start">2023-03-10</text>
<text x="290" y="408" font-size="20" text-anchor="start">2023-03-19</text>
<text x="400" y="408" font-size="20" text-anchor="start">10</text>
<text x="440" y="408" font-size="20" text-anchor="start"></text>
</g>
<g id="item">
<path d="M810,395 L1119,395 L1119,412 L1109,403 L820,403 L810,412 L810,395" fill="black" stroke="black" />
<path d="M1,418 L1151,418" stroke="grey" />
</g>
</g>
<g id="task">
<g id="text">
<text x="35" y="439" font-size="20" text-anchor="start">子任务1</text>
<text x="190" y="439" font-size="20" text-anchor="start">2023-03-10</text>
<text x="290" y="439" font-size="20" text-anchor="start">2023-03-11</text>
<text x="400" y="439" font-size="20" text-anchor="start">2</text>
<text x="440" y="439" font-size="20" text-anchor="start">test</text>
</g>
<g id="item">
<rect x="810" y="423" width="61" height="20" fill="#67AAFF" stroke="black">
<title>子任务1</title>
</rect>
<path d="M1,449 L1151,449" stroke="grey" />
</g>
</g>
<g id="task">
<g id="text">
<text x="35" y="470" font-size="20" text-anchor="start">子任务2</text>
<text x="190" y="470" font-size="20" text-anchor="start">2023-03-12</text>
<text x="290" y="470" font-size="20" text-anchor="start">2023-03-14</text>
<text x="400" y="470" font-size="20" text-anchor="start">3</text>
<text x="440" y="470" font-size="20" text-anchor="start">test</text>
</g>
<g id="item">
<rect x="872" y="454" width="92" height="20" fill="#67AAFF" stroke="black">
<title>子任务2</title>
</rect>
<path d="M1,480 L1151,480" stroke="grey" />
</g>
</g>
<g id="task">
<g id="text">
<text x="35" y="501" font-size="20" text-anchor="start">子任务3</text>
<text x="190" y="501" font-size="20" text-anchor="start">2023-03-15</text>
<text x="290" y="501" font-size="20" text-anchor="start">2023-03-19</text>
<text x="400" y="501" font-size="20" text-anchor="start">5</text>
<text x="440" y="501" font-size="20" text-anchor="start">test</text>
</g>
<g id="item">
<rect x="965" y="485" width="154" height="20" fill="#67AAFF" stroke="black">
<title>子任务3</title>
</rect>
<path d="M1,511 L1151,511" stroke="grey" />
</g>
</g>
<g id="task">
<g id="text">
<text x="5" y="532" font-size="20" text-anchor="start">任务3</text>
<text x="190" y="532" font-size="20" text-anchor="start">2023-03-15</text>
<text x="290" y="532" font-size="20" text-anchor="start">2023-03-19</text>
<text x="400" y="532" font-size="20" text-anchor="start">5</text>
<text x="440" y="532" font-size="20" text-anchor="start">test</text>
</g>
<g id="item">
<rect x="965" y="516" width="154" height="20" fill="#67AAFF" stroke="black">
<title>任务3</title>
</rect>
<path d="M1,542 L1151,542" stroke="grey" />
</g>
</g>
</g>
<g id="handover">
<g id="link">
<path d="M655,186 H670 V197" stroke="red" stroke-width="2" fill="none" marker-end="url(#d0)" />
</g>
<g id="link">
<path d="M748,217 H763 V228" stroke="red" stroke-width="2" fill="none" marker-end="url(#d1)" />
</g>
<g id="link">
<path d="M748,217 H763 V259" stroke="red" stroke-width="2" fill="none" marker-end="url(#d2)" />
</g>
<g id="link">
<path d="M841,279 H825 V414" stroke="red" stroke-width="2" fill="none" marker-end="url(#d3)" />
</g>
<g id="link">
<path d="M872,434 H887 V445" stroke="red" stroke-width="2" fill="none" marker-end="url(#d4)" />
</g>
<g id="link">
<path d="M965,465 H980 V476" stroke="red" stroke-width="2" fill="none" marker-end="url(#d5)" />
</g>
</g>
<text x="871" y="40" font-size="15" text-anchor="start" fill="grey">https://www.netkiller.cn - design by netkiller</text>
<rect x="0" y="0" width="1151" height="573" fill="none" stroke="black" />
</svg>